PathFileType	4	(X/Y/Z)	C:/Users/beibeiliu/ov580/test_trc/User3\sequence.3_training_dense_right.trc
DataRate	CameraRate	NumFrames	NumMarkers	Units	OrigDataRate	OrigDataStartFrame	OrigNumFrames
120	120	12	19	mm	120	1	78
Frame#	Time	ThumbCMC			ThumbMCP			ThumbIP			ThumbTip			IndexMCP			IndexPIP			IndexTip			MiddleMCP			MiddlePIP			MiddleTip			RingMCP			RingPIP			RingTip			PinkyMCP			PinkyPIP			PinkyTip			BackHand1			BackHand2			BackHand3	
		X0	Y0	Z0	X1	Y1	Z1	X2	Y2	Z2	X3	Y3	Z3	X4	Y4	Z4	X5	Y5	Z5	X6	Y6	Z6	X7	Y7	Z7	X8	Y8	Z8	X9	Y9	Z9	X10	Y10	Z10	X11	Y11	Z11	X12	Y12	Z12	X13	Y13	Z13	X14	Y14	Z14	X15	Y15	Z15	X16	Y16	Z16	X17	Y17	Z17	X18	Y18	Z18	
0	0	150.899	36.9885	-9.73609	128.86	25.1228	-34.272	117.779	14.7952	-60.8456	113.476	4.87503	-81.0366	167.689	57.333	-83.4757	161.683	55.6326	-113.222	154.89	54.8175	-133.924	196.733	55.3591	-87.4932	193.083	54.9995	-116.136	194.958	48.6928	-147.742	211.74	46.1853	-79.8334	215.539	47.3614	-105.86	221.49	44.3845	-132.749	227.942	33.1823	-63.1831	239.325	33.3226	-83.3093	249.975	31.6581	-101.725	210.308	51.3213	-29.4209	210.21	53.4725	1.70518	178.857	60.4344	-15.0636	
1	0.00833333	148.904	35.6527	-14.7049	132.845	23.3539	-33.057	119.193	13.7356	-62.1306	109.963	3.04399	-78.839	167.541	55.7242	-83.4124	159.607	56.034	-112.53	158.204	51.352	-137.569	192.953	55.068	-86.6603	192.41	53.6518	-120.067	194.266	47.4107	-149.735	209.722	47.0877	-81.96	219.343	45.2837	-102.883	219.315	42.1456	-133.051	227.277	32.2432	-62.9675	239.62	32.4028	-85.4474	244.858	28.8806	-107.951	209.855	50.0023	-28.9878	210.053	50.9055	1.62401	178.419	60.304	-17.6997	
2	0.0166667	147.49	33.9744	-9.65821	133.112	21.882	-36.011	117.982	12.6007	-62.0463	114.617	2.8444	-81.6463	167.979	55.7298	-83.8138	159.134	55.4842	-109.299	158.89	48.7825	-135.19	193.12	56.127	-91.5451	191.599	53.8068	-119.948	193.266	43.176	-151.475	212.191	46.9298	-80.409	214.857	46.4539	-104.042	217.724	37.2736	-132.913	227.722	34.5707	-64.2251	238.376	31.334	-84.8292	242.034	25.2298	-106.881	210.779	49.8788	-29.7085	213.207	50.2114	-0.555562	180.151	59.1118	-15.5878	
3	0.025	147.731	34.5851	-12.4517	131.829	22.6736	-34.3764	121.966	14.0286	-65.4321	119.577	2.77079	-86.2521	166.893	59.8677	-80.6224	160.079	56.4972	-114.166	159.822	41.631	-136.073	196.721	59.5756	-88.1257	194.061	54.6695	-121.283	191.002	34.2537	-146.769	210.455	52.4899	-81.2586	214.646	47.5211	-109.831	209.947	28.8443	-132.016	227.02	36.6172	-63.8812	235.256	33.2745	-86.4767	232.305	15.0794	-111.727	209.077	53.4695	-29.146	212.219	48.1694	2.16361	177.378	60.1051	-18.1529	
4	0.0333333	149.737	37.6572	-13.3399	137.567	25.4225	-37.2884	129.359	17.6859	-67.6837	135.608	6.87262	-91.06	171.498	66.1972	-82.3034	162.655	60.174	-111.924	160.454	30.6909	-123.619	192.316	65.1757	-83.8003	188.891	53.1214	-119.735	180.664	21.3766	-129.868	209.389	53.9132	-76.9717	207.63	44.3075	-110.419	198.462	13.7792	-117.61	227.126	37.4438	-64.2094	226.756	29.3692	-94.5518	213.279	4.18887	-100.623	211.489	54.4981	-25.4907	217.899	50.4877	2.77495	184.831	60.9444	-12.6511	
5	0.0416667	153.606	38.9218	-14.0904	144.46	27.5667	-39.365	139.391	19.6891	-66.5785	150.396	10.8654	-89.6204	169.661	66.8473	-81.112	165.41	49.0707	-109.211	152.936	19.3713	-96.3622	193.492	62.084	-86.1337	185.974	41.6835	-113.889	174.196	9.55176	-97.727	206.801	51.5222	-83.0826	204.339	30.1871	-104.874	189.259	6.44505	-88.6439	225.438	36.4154	-71.812	216.192	21.8425	-91.3385	200.404	-4.97003	-75.3275	217.779	55.0199	-28.5308	217.581	50.956	-0.0466139	187.212	63.6947	-15.2393	
6	0.05	157.201	39.7592	-14.371	141.973	30.1175	-41.617	140.814	22.7502	-74.297	158.993	12.3814	-93.2039	169.075	64.7334	-82.8439	155.969	39.6334	-100.752	159.274	20.3025	-74.2758	187.297	57.2925	-88.7139	176.813	27.8431	-102.509	173.999	9.61808	-67.7781	206.33	42.8877	-85.3795	196.694	15.0085	-92.145	188.771	5.4444	-61.5981	219.73	33.4783	-72.5286	207.739	7.7016	-81.0498	198.671	1.50637	-50.5379	216.289	59.3623	-27.0467	216.844	51.543	1.16561	186.435	65.5401	-14.5096	
7	0.0583333	157.198	40.5296	-14.8308	144.103	32.0459	-47.5875	147.203	24.2658	-78.8429	170.762	15.8098	-96.0417	168.543	65.7746	-86.0207	160.592	34.6513	-94.7872	162.65	27.4338	-61.9486	188.838	52.3126	-90.571	176.55	21.9612	-92.5445	181.424	16.7131	-51.8007	205.37	38.118	-85.0488	195.806	10.4134	-80.3971	188.995	12.457	-49.1961	219.619	33.1467	-74.3839	204.842	8.64838	-74.8904	203.277	7.24637	-40.9862	218.364	64.5621	-33.9619	219.607	52.5598	0.375347	186.518	68.1215	-13.542	
8	0.0666667	164.837	44.2132	-27.2256	150.057	33.1851	-56.2157	157.703	25.5005	-84.6354	181.471	16.8802	-99.6211	177.359	65.5507	-92.4095	166.903	35.9498	-99.1849	169.974	29.4178	-68.2528	196.59	54.0819	-93.614	184.279	21.2269	-90.5083	184.546	20.5708	-56.1048	210.242	43.7867	-85.197	199.741	14.5246	-80.9341	197.262	19.3542	-44.8585	224.827	33.1615	-78.7556	208.818	11.2087	-70.3031	212.786	12.6138	-41.0277	227.574	66.5609	-37.3275	226.565	55.2239	-7.26258	193.915	68.937	-18.8711	
9	0.075	167.387	43.3705	-32.1891	158.542	28.3508	-66.2185	168.288	18.3314	-93.2752	196.895	11.0627	-103.636	189.071	59.4153	-101.678	176.161	31.5443	-107.219	178.419	28.3243	-71.9723	202.493	47.7277	-102.374	193.426	15.9941	-94.2966	191.069	19.5493	-58.5259	220.185	38.577	-90.1409	207.812	10.7888	-83.0318	202.717	17.7946	-49.4575	234.939	27.7499	-82.0125	218.338	7.51595	-70.8655	214.683	15.1743	-41.9331	227.923	65.4051	-42.8729	230.5	57.4492	-14.8264	200.691	70.8355	-26.9524	
10	0.0833333	174.117	38.1123	-43.0306	163.698	16.413	-74.0834	176.047	-1.09762	-97.7219	206.681	-7.05297	-100.087	193.753	43.5498	-108.327	182.434	10.1303	-106.802	185.047	13.7107	-75.8997	211.786	28.7804	-106.532	202.623	-0.292515	-97.4877	197.818	11.6598	-60.4494	226.293	18.7657	-94.3842	214.039	-4.18285	-80.788	206.519	9.5603	-50.4226	240.617	13.0496	-81.8341	222.721	-3.41196	-68.9645	217.722	11.9958	-40.1852	232.054	58.38	-50.4202	231.363	57.2003	-18.9792	202.254	64.0642	-38.9384	
11	0.0916667	169.058	30.4631	-41.7869	163.11	6.13345	-68.2791	176.141	-17.572	-92.7898	204.8	-26.0523	-93.2906	188.887	19.3989	-111.474	180.399	-10.3507	-101.503	179.954	5.37643	-71.8481	206.696	11.3004	-106.033	196.239	-18.3229	-90.167	191.133	3.07847	-57.6033	222.32	0.756979	-92.9427	210.652	-19.499	-74.3676	201.633	2.28602	-48.1078	231.055	-3.12019	-80.9379	216.966	-16.8735	-60.5559	215.785	3.12089	-38.2062	232.604	46.204	-61.683	228.783	51.4183	-27.939	197.126	56.6129	-51.9287	
